<svg xmlns="http://www.w3.org/2000/svg" viewBox="0 0 96 96" role="img" aria-label="轻工具箱 logo">
  <defs>
    <linearGradient id="bg" x1="14" y1="10" x2="82" y2="86" gradientUnits="userSpaceOnUse">
      <stop offset="0" stop-color="#2DD4BF"/>
      <stop offset="0.55" stop-color="#38BDF8"/>
      <stop offset="1" stop-color="#2563EB"/>
    </linearGradient>
    <linearGradient id="card" x1="26" y1="24" x2="70" y2="72" gradientUnits="userSpaceOnUse">
      <stop offset="0" stop-color="#FFFFFF"/>
      <stop offset="1" stop-color="#EAF8FF"/>
    </linearGradient>
    <filter id="softShadow" x="-20%" y="-20%" width="140%" height="150%" color-interpolation-filters="sRGB">
      <feDropShadow dx="0" dy="8" stdDeviation="7" flood-color="#0F172A" flood-opacity="0.16"/>
    </filter>
  </defs>
  <rect x="8" y="8" width="80" height="80" rx="20" fill="url(#bg)"/>
  <path d="M21 64C33 74 57 75 75 60" fill="none" stroke="#DFFBFF" stroke-width="5" stroke-linecap="round" opacity="0.55"/>
  <g filter="url(#softShadow)">
    <rect x="25" y="23" width="46" height="50" rx="12" fill="url(#card)"/>
    <rect x="32" y="32" width="25" height="5" rx="2.5" fill="#0F766E" opacity="0.88"/>
    <rect x="32" y="43" width="32" height="5" rx="2.5" fill="#0EA5E9" opacity="0.55"/>
    <rect x="32" y="54" width="18" height="5" rx="2.5" fill="#0EA5E9" opacity="0.38"/>
    <circle cx="66" cy="28" r="10" fill="#ECFEFF"/>
    <path d="M62 28.3l2.8 2.8 5.4-6.1" fill="none" stroke="#0F766E" stroke-width="3" stroke-linecap="round" stroke-linejoin="round"/>
  </g>
  <path d="M24 22l7-8m41 60l7 8" stroke="#FFFFFF" stroke-width="4" stroke-linecap="round" opacity="0.6"/>
</svg>
